<?xml version="1.0" encoding="UTF-8" standalone="no"?>
<svg
   xmlns:dc="http://purl.org/dc/elements/1.1/"
   xmlns:cc="http://creativecommons.org/ns#"
   xmlns:rdf="http://www.w3.org/1999/02/22-rdf-syntax-ns#"
   xmlns:svg="http://www.w3.org/2000/svg"
   xmlns="http://www.w3.org/2000/svg"
   xmlns:sodipodi="http://sodipodi.sourceforge.net/DTD/sodipodi-0.dtd"
   xmlns:inkscape="http://www.inkscape.org/namespaces/inkscape"
   width="210mm"
   height="297mm"
   viewBox="0 0 210 297"
   version="1.1"
   id="svg8"
   sodipodi:docname="logo1.svg"
   inkscape:version="1.0.2 (e86c8708, 2021-01-15)">
  <defs
     id="defs2">
    <rect
       x="-167.82143"
       y="194.27976"
       width="72.571429"
       height="97.517857"
       id="rect105" />
    <rect
       x="-16.630952"
       y="68.035714"
       width="37.041667"
       height="105.83333"
       id="rect99" />
    <rect
       x="-216.95833"
       y="207.8869"
       width="13.607142"
       height="79.375"
       id="rect93" />
    <rect
       x="-36.285714"
       y="93.738095"
       width="19.654762"
       height="37.797619"
       id="rect71" />
    <rect
       x="7.5595238"
       y="55.940476"
       width="6.047619"
       height="12.095238"
       id="rect61" />
  </defs>
  <sodipodi:namedview
     id="base"
     pagecolor="#ffffff"
     bordercolor="#666666"
     borderopacity="1.0"
     inkscape:pageopacity="0.0"
     inkscape:pageshadow="2"
     inkscape:zoom="1.0902396"
     inkscape:cx="110.55121"
     inkscape:cy="710.74838"
     inkscape:document-units="mm"
     inkscape:current-layer="layer1"
     inkscape:document-rotation="0"
     showgrid="true"
     inkscape:window-width="1180"
     inkscape:window-height="752"
     inkscape:window-x="260"
     inkscape:window-y="89"
     inkscape:window-maximized="0">
    <inkscape:grid
       type="xygrid"
       id="grid237" />
  </sodipodi:namedview>
  <metadata
     id="metadata5">
    <rdf:RDF>
      <cc:Work
         rdf:about="">
        <dc:format>image/svg+xml</dc:format>
        <dc:type
           rdf:resource="http://purl.org/dc/dcmitype/StillImage" />
        <dc:title></dc:title>
      </cc:Work>
    </rdf:RDF>
  </metadata>
  <g
     inkscape:label="Lag 1"
     inkscape:groupmode="layer"
     id="layer1">
    <g
       id="g53"
       transform="matrix(0.26458333,0,0,0.26458333,40.066119,57.288643)">
      <path
         d="M 352.742,291.476 H 88.779 l 228.58,-145.334 a 6,6 0 0 0 1.844,-8.284 L 296.556,102.24 A 36.285,36.285 0 0 0 246.523,91.1 l -32.165,20.451 2.548,-12.191 A 34.314,34.314 0 1 0 149.919,84.446 L 133.209,159.5 77.258,147.046 a 34.315,34.315 0 0 0 -21,65.026 L 21.8,233.982 a 36.285,36.285 0 0 0 -11.14,50.032 l 22.647,35.619 a 6,6 0 0 0 8.283,1.845 l 21.08,-13.4 V 459.966 A 36.285,36.285 0 0 0 98.916,496.21 H 322.5 a 36.285,36.285 0 0 0 36.244,-36.244 v -162.49 a 6,6 0 0 0 -6.002,-6 z m -99.78,-190.248 a 24.084,24.084 0 0 1 12.961,-3.794 24.481,24.481 0 0 1 5.316,0.587 24.09,24.09 0 0 1 15.19,10.658 l 19.428,30.555 -94.5,60.086 -32.436,-51.014 z m -91.33,-14.173 a 22.314332,22.314332 0 1 1 43.545,9.775 l -4.926,23.564 -53.667,34.249 z m 7.16,67.69 32.436,51.014 -54.76,34.816 -32.435,-51.014 z M 50.971,192.513 A 22.314,22.314 0 0 1 74.65,158.759 l 48.485,10.794 -53.822,33.739 -4.362,-0.972 a 22.168,22.168 0 0 1 -13.98,-9.807 z M 40.216,308.132 20.789,277.576 a 24.272,24.272 0 0 1 7.45,-33.467 L 103.906,196 136.341,247.014 Z M 156.569,484.21 H 98.916 A 24.272,24.272 0 0 1 74.672,459.966 v -156.49 h 81.9 z m 76.264,0 H 168.569 V 303.476 h 64.264 z M 346.742,459.966 A 24.272,24.272 0 0 1 322.5,484.21 H 244.833 V 303.476 h 101.909 z"
         id="path10" />
      <path
         d="m 419.833,236.971 2.87,-16.735 A 6,6 0 0 0 414,213.911 l -15.028,7.9 -15.029,-7.9 a 6,6 0 0 0 -8.706,6.325 l 2.87,16.735 -12.158,11.85 a 6,6 0 0 0 3.325,10.235 l 16.8,2.442 7.514,15.225 a 6,6 0 0 0 10.762,0 l 7.513,-15.225 16.8,-2.442 a 6,6 0 0 0 3.325,-10.235 z m -12.817,13.1 a 6,6 0 0 0 -4.518,3.282 l -3.529,7.152 -3.53,-7.152 a 6,6 0 0 0 -4.517,-3.282 l -7.894,-1.147 5.712,-5.567 a 6,6 0 0 0 1.726,-5.311 l -1.349,-7.862 7.06,3.711 a 5.994,5.994 0 0 0 5.584,0 l 7.059,-3.711 -1.348,7.862 a 6,6 0 0 0 1.725,5.311 l 5.712,5.567 z"
         id="path12" />
      <path
         d="m 488.841,154.3 -16.5,-4.01 -6.051,-15.863 a 6,6 0 0 0 -10.714,-1.012 l -8.911,14.453 -16.957,0.853 a 6,6 0 0 0 -4.272,9.876 l 10.991,12.941 -4.427,16.39 a 6,6 0 0 0 8.073,7.115 l 15.7,-6.454 14.227,9.277 a 6,6 0 0 0 9.261,-5.479 l -1.285,-16.93 13.213,-10.657 a 6,6 0 0 0 -2.348,-10.5 z m -20.856,13.8 a 6,6 0 0 0 -2.216,5.125 l 0.6,7.953 -6.681,-4.359 a 6,6 0 0 0 -5.559,-0.524 l -7.376,3.032 2.08,-7.7 a 6,6 0 0 0 -1.219,-5.449 l -5.163,-6.079 7.966,-0.4 a 6,6 0 0 0 4.807,-2.842 l 4.185,-6.789 2.842,7.452 a 6,6 0 0 0 4.189,3.691 l 7.751,1.884 z"
         id="path14" />
      <path
         d="m 400.6,56.763 -4.429,16.39 a 6,6 0 0 0 8.073,7.116 l 15.7,-6.455 14.221,9.279 a 6,6 0 0 0 9.261,-5.48 l -1.285,-16.93 13.216,-10.658 a 6,6 0 0 0 -2.348,-10.5 l -16.5,-4.009 -6.05,-15.864 a 6,6 0 0 0 -10.714,-1.01 l -8.91,14.452 -16.958,0.852 a 6,6 0 0 0 -4.273,9.876 z m 13.991,-11.844 a 6,6 0 0 0 4.806,-2.843 l 4.186,-6.789 2.842,7.452 a 6,6 0 0 0 4.189,3.692 l 7.75,1.883 -6.208,5.006 a 6,6 0 0 0 -2.217,5.125 l 0.6,7.954 -6.681,-4.359 a 6,6 0 0 0 -5.559,-0.524 l -7.376,3.032 2.08,-7.7 a 6,6 0 0 0 -1.219,-5.45 l -5.163,-6.08 z"
         id="path16" />
      <path
         d="m 291.746,237.835 c -13.546,8.525 -20.164,18.855 -20.439,19.291 a 6.0000893,6.0000893 0 0 0 10.134,6.427 c 0.9,-1.4 22.609,-34.215 69.86,-22.527 a 6,6 0 0 0 2.883,-11.648 c -29.072,-7.193 -50.001,0.628 -62.438,8.457 z"
         id="path18" />
      <path
         d="m 405.6,174.293 a 6.0003137,6.0003137 0 0 0 4.6,-11.084 c -42.714,-17.727 -73.759,-4.452 -92.28,9.808 a 112.488,112.488 0 0 0 -29.868,35.246 6.000064,6.000064 0 1 0 10.748,5.337 101.191,101.191 0 0 1 26.44,-31.075 c 23.288,-17.925 50.325,-20.697 80.36,-8.232 z"
         id="path20" />
      <path
         d="m 338.178,129.844 a 6,6 0 0 0 3.862,7.555 90.163,90.163 0 0 0 25.438,3.676 c 10.034,0 21.623,-1.811 32.015,-7.971 13.6,-8.058 22.32,-21.787 25.934,-40.8 a 6,6 0 1 0 -11.789,-2.24 c -2.938,15.461 -9.738,26.46 -20.211,32.69 -19.921,11.853 -47.267,3.367 -47.7,3.229 a 6,6 0 0 0 -7.549,3.861 z"
         id="path22" />
      <path
         d="m 258.867,284.873 a 10.806,10.806 0 1 0 -10.805,-10.806 10.819,10.819 0 0 0 10.805,10.806 z m 0,-12 a 1.195,1.195 0 1 1 -1.194,1.194 1.2,1.2 0 0 1 1.194,-1.194 z"
         id="path24" />
      <path
         d="m 343.887,88.873 a 10.806,10.806 0 1 0 -10.806,-10.806 10.818,10.818 0 0 0 10.806,10.806 z m 0,-12 a 1.195,1.195 0 1 1 -1.195,1.194 1.2,1.2 0 0 1 1.195,-1.194 z"
         id="path26" />
      <path
         d="M 496.194,80.633 A 10.806,10.806 0 1 0 507,91.438 10.817,10.817 0 0 0 496.194,80.633 Z m 0,12 a 1.195,1.195 0 1 1 1.195,-1.195 1.2,1.2 0 0 1 -1.195,1.195 z"
         id="path28" />
      <path
         d="m 254.444,224.027 a 10.806,10.806 0 1 0 -10.8,10.806 10.817,10.817 0 0 0 10.8,-10.806 z m -10.8,1.2 a 1.195,1.195 0 1 1 1.194,-1.2 1.2,1.2 0 0 1 -1.199,1.195 z"
         id="path30" />
      <path
         d="m 478.4,230.812 a 10.806,10.806 0 1 0 10.806,10.806 10.818,10.818 0 0 0 -10.806,-10.806 z m 0,12 a 1.194,1.194 0 1 1 1.195,-1.194 1.2,1.2 0 0 1 -1.195,1.194 z"
         id="path32" />
    </g>
    <text
       xml:space="preserve"
       id="text59"
       style="fill:black;fill-opacity:1;line-height:1.25;stroke:none;font-family:sans-serif;font-style:normal;font-weight:normal;font-size:10.58333333000000032px;white-space:pre;shape-inside:url(#rect61);" />
    <text
       xml:space="preserve"
       style="font-style:normal;font-weight:normal;font-size:26.0433px;line-height:1.25;font-family:sans-serif;fill:#000000;fill-opacity:1;stroke:none;stroke-width:0.651086"
       x="51.435307"
       y="216.44165"
       id="text67"
       transform="scale(1.0359396,0.96530724)"><tspan
         id="tspan65"
         x="51.435307"
         y="216.44165"
         style="stroke-width:0.651086"
         sodipodi:role="line">L I N K</tspan></text>
    <text
       xml:space="preserve"
       id="text69"
       style="fill:black;fill-opacity:1;line-height:1.25;stroke:none;font-family:sans-serif;font-style:normal;font-weight:normal;font-size:10.58333333000000032px;white-space:pre;shape-inside:url(#rect71);" />
    <text
       xml:space="preserve"
       id="text97"
       style="fill:black;fill-opacity:1;line-height:1.25;stroke:none;font-family:sans-serif;font-style:normal;font-weight:normal;font-size:10.58333333000000032px;white-space:pre;shape-inside:url(#rect99);" />
    <text
       xml:space="preserve"
       id="text103"
       style="fill:black;fill-opacity:1;line-height:1.25;stroke:none;font-family:sans-serif;font-style:normal;font-weight:normal;font-size:10.58333333000000032px;white-space:pre;shape-inside:url(#rect105);" />
    <text
       xml:space="preserve"
       style="font-size:26.0433px;line-height:1.25;font-family:sans-serif;stroke-width:0.264583"
       x="18.610338"
       y="131.0696"
       id="text113"><tspan
         sodipodi:role="line"
         id="tspan111"
         x="18.610338"
         y="131.0696"
         style="font-size:26.0433px;stroke-width:0.264583">W</tspan></text>
    <text
       xml:space="preserve"
       style="font-size:26.0433px;line-height:1.25;font-family:sans-serif;stroke-width:0.264583"
       x="26.19998"
       y="156.77196"
       id="text117"><tspan
         sodipodi:role="line"
         id="tspan115"
         x="26.19998"
         y="156.77196"
         style="font-size:26.0433px;stroke-width:0.264583">I</tspan></text>
    <text
       xml:space="preserve"
       style="font-size:26.0433px;line-height:1.25;font-family:sans-serif;stroke-width:0.264583"
       x="22.474834"
       y="182.94998"
       id="text121"><tspan
         sodipodi:role="line"
         id="tspan119"
         x="22.474834"
         y="182.94998"
         style="font-size:26.0433px;stroke-width:0.264583">S</tspan></text>
    <text
       xml:space="preserve"
       style="font-size:26.0433px;line-height:1.25;font-family:sans-serif;stroke-width:0.264583"
       x="21.694248"
       y="209.62749"
       id="text125"><tspan
         sodipodi:role="line"
         id="tspan123"
         x="21.694248"
         y="209.62749"
         style="font-size:26.0433px;stroke-width:0.264583">H</tspan></text>
  </g>
</svg>
